<?xml version="1.0" encoding="UTF-8" standalone="no"?>
<!-- Generator: Adobe Illustrator 11.0, SVG Export Plug-In  -->

<svg
   xmlns:dc="http://purl.org/dc/elements/1.1/"
   xmlns:cc="http://creativecommons.org/ns#"
   xmlns:rdf="http://www.w3.org/1999/02/22-rdf-syntax-ns#"
   xmlns:svg="http://www.w3.org/2000/svg"
   xmlns="http://www.w3.org/2000/svg"
   xmlns:sodipodi="http://sodipodi.sourceforge.net/DTD/sodipodi-0.dtd"
   xmlns:inkscape="http://www.inkscape.org/namespaces/inkscape"
   width="511"
   height="400"
   viewBox="-0.124 -0.82 511 437"
   xml:space="preserve"
   id="svg2"
   version="1.1"
   inkscape:version="0.48.1 "
   sodipodi:docname="Alquiler_de_coches.svg"><metadata
   id="metadata20"><rdf:RDF><cc:Work
       rdf:about=""><dc:format>image/svg+xml</dc:format><dc:type
         rdf:resource="http://purl.org/dc/dcmitype/StillImage" /><dc:title /></cc:Work></rdf:RDF></metadata><sodipodi:namedview
   pagecolor="#ffffff"
   bordercolor="#666666"
   borderopacity="1"
   objecttolerance="10"
   gridtolerance="10"
   guidetolerance="10"
   inkscape:pageopacity="0"
   inkscape:pageshadow="2"
   inkscape:window-width="944"
   inkscape:window-height="582"
   id="namedview18"
   showgrid="false"
   showguides="false"
   inkscape:zoom="0.59582318"
   inkscape:cx="175.98138"
   inkscape:cy="218.5"
   inkscape:window-x="25"
   inkscape:window-y="0"
   inkscape:window-maximized="0"
   inkscape:current-layer="svg2" />
	<defs
   id="defs4">
	
		 
		
		
		
		
	</defs>
	<path
   style="fill:#007d5a;fill-opacity:1"
   inkscape:connector-curvature="0"
   id="path12"
   d="m 37.26,15.948 435.96,0 c 11.736,0 21.24,9.648 21.24,21.312 l 0,361.44 c 0,11.808 -9.504,21.312 -21.24,21.312 l -435.96,0 c -11.664,0 -21.24,-9.504 -21.24,-21.312 l 0,0 0,-361.44 c 0,-11.664 9.504,-21.312 21.24,-21.312 0,0 0,0 0.144,0 z"
   sodipodi:nodetypes="csssssccsccc" />
<g
   style="font-size:40px;font-style:normal;font-weight:normal;line-height:125%;letter-spacing:0px;word-spacing:0px;fill:#000000;fill-opacity:1;stroke:none;font-family:Sans"
   id="flowRoot3782" /><path
   style="fill:#ffffff;fill-opacity:1;fill-rule:evenodd;stroke-width:0;stroke-miterlimit:4"
   inkscape:connector-curvature="0"
   d="m 317.07998,40.717772 c 29.88939,0 54.13739,24.397422 54.13739,54.510208 0,30.11352 -24.24873,54.53877 -54.13739,54.53877 -20.4546,0 -38.22915,-11.43365 -47.42808,-28.30215 h -0.28674 -0.91762 -21.1043 l -17.43395,-17.43395 -12.84657,12.84657 -12.84656,-12.84657 -12.84657,12.84657 -12.84657,-12.84657 -13.76361,13.76361 -24.77464,-24.774639 v -4.587966 l 20.1792,-20.185792 h 108.27185 1.63448 C 279.38715,51.799265 296.92951,40.71865 317.07209,40.71865 z m 22.8827,39.771701 c -7.55823,0 -13.67791,6.379484 -13.67791,14.251423 0,7.871944 6.11924,14.279994 13.67791,14.279994 7.55823,0 13.70648,-6.4082 13.70648,-14.279994 0,-7.871792 -6.14788,-14.251423 -13.70648,-14.251423 z"
   stroke-miterlimit="4"
   id="path6" /><path
   style="fill:#ffffff;fill-rule:evenodd;stroke:#ffffff;stroke-width:1.46491467999999990;stroke-linecap:butt;stroke-linejoin:miter;stroke-miterlimit:4;fill-opacity:1;stroke-opacity:1"
   inkscape:connector-curvature="0"
   d="m 249.87681,173.22607 c -12.58874,0.006 -25.13354,0.0214 -25.13354,0.0214 l -30.92801,0.45073 c -11.68929,-0.41356 -21.75472,3.37142 -27.96669,16.95565 l -22.45055,56.12601 c -16.34185,4.50549 -23.44742,16.38141 -23.82391,26.1209 v 73.53139 h 21.5489 v 24.7468 c -1.04434,23.58367 37.61901,24.52634 38.48331,-0.21463 l 0.45072,-24.29634 H 319.8685 l 0.4468,24.28829 c 0.8643,24.74094 39.5278,23.79827 38.48331,0.21462 v -24.7468 h 21.52766 v -73.5314 c -0.3769,-9.73875 -7.48206,-21.61481 -23.82391,-26.12089 l -22.45055,-56.12601 c -6.21197,-13.58416 -16.25543,-17.3695 -27.94472,-16.95566 l -30.92801,-0.45072 c -0.0988,-0.0256 -12.71692,-0.0278 -25.30493,-0.0214 z M 196.39058,193.187 c 0.97768,-0.005 1.98108,0.022 3.02629,0.0644 l 101.41605,0.32194 c 9.28097,-0.21653 13.22378,-0.0177 17.17026,8.75726 l 16.16168,43.54825 -168.20884,-0.2361 15.96831,-42.34629 c 2.49035,-8.48039 7.62195,-10.07129 14.46603,-10.10937 z m -35.32788,74.45429 c 10.05737,0 18.22207,8.14346 18.22207,18.20084 0,10.05737 -8.1647,18.22207 -18.22207,18.22207 -10.05738,0 -18.20084,-8.1647 -18.20084,-18.22207 0,-10.05738 8.14346,-18.20084 18.20084,-18.20084 z m 178.78551,0 c 10.05737,0 18.22208,8.14346 18.22208,18.20084 0,10.05737 -8.16471,18.22207 -18.22208,18.22207 -10.05737,0 -18.20083,-8.1647 -18.20083,-18.22207 0,-10.05738 8.14346,-18.20084 18.20083,-18.20084 z"
   stroke-miterlimit="4"
   id="path8" /></svg>