<?xml version="1.0" encoding="UTF-8" standalone="no"?>
<!-- Created with Inkscape (http://www.inkscape.org/) -->
<svg
   xmlns:dc="http://purl.org/dc/elements/1.1/"
   xmlns:cc="http://creativecommons.org/ns#"
   xmlns:rdf="http://www.w3.org/1999/02/22-rdf-syntax-ns#"
   xmlns:svg="http://www.w3.org/2000/svg"
   xmlns="http://www.w3.org/2000/svg"
   xmlns:sodipodi="http://sodipodi.sourceforge.net/DTD/sodipodi-0.dtd"
   xmlns:inkscape="http://www.inkscape.org/namespaces/inkscape"
   width="181.29666"
   height="70.558701"
   id="svg5874"
   sodipodi:version="0.32"
   inkscape:version="0.46"
   version="1.0"
   sodipodi:docname="Avis logo.svg"
   inkscape:output_extension="org.inkscape.output.svg.inkscape">
  <defs
     id="defs5876">
    <inkscape:perspective
       sodipodi:type="inkscape:persp3d"
       inkscape:vp_x="0 : 526.18109 : 1"
       inkscape:vp_y="0 : 1000 : 0"
       inkscape:vp_z="744.09448 : 526.18109 : 1"
       inkscape:persp3d-origin="372.04724 : 350.78739 : 1"
       id="perspective5882" />
    <inkscape:perspective
       id="perspective5897"
       inkscape:persp3d-origin="372.04724 : 350.78739 : 1"
       inkscape:vp_z="744.09448 : 526.18109 : 1"
       inkscape:vp_y="0 : 1000 : 0"
       inkscape:vp_x="0 : 526.18109 : 1"
       sodipodi:type="inkscape:persp3d" />
  </defs>
  <sodipodi:namedview
     id="base"
     pagecolor="#ffffff"
     bordercolor="#666666"
     borderopacity="1.0"
     gridtolerance="10000"
     guidetolerance="10"
     objecttolerance="10"
     inkscape:pageopacity="0.0"
     inkscape:pageshadow="2"
     inkscape:zoom="1.020427"
     inkscape:cx="309.70108"
     inkscape:cy="128.55666"
     inkscape:document-units="px"
     inkscape:current-layer="layer1"
     showgrid="false"
     inkscape:window-width="1024"
     inkscape:window-height="721"
     inkscape:window-x="-4"
     inkscape:window-y="-4" />
  <metadata
     id="metadata5879">
    <rdf:RDF>
      <cc:Work
         rdf:about="">
        <dc:format>image/svg+xml</dc:format>
        <dc:type
           rdf:resource="http://purl.org/dc/dcmitype/StillImage" />
      </cc:Work>
    </rdf:RDF>
  </metadata>
  <g
     inkscape:label="Layer 1"
     inkscape:groupmode="layer"
     id="layer1"
     transform="translate(-13.719742,-506.51227)">
    <path
       style="font-size:1542.08239746px;font-style:normal;font-weight:normal;text-align:start;line-height:125%;text-anchor:start;fill:#ff0000;fill-opacity:1;stroke:none;stroke-width:1px;stroke-linecap:butt;stroke-linejoin:miter;stroke-opacity:1;font-family:Bitstream Vera Sans"
       d="M 143.74451,514.79375 L 125.86148,568.01801 L 112.79562,568.01801 L 130.67865,514.79375 L 143.74451,514.79375 z M 123.61302,514.79375 L 95.984518,568.01801 L 77.029546,568.01801 L 76.065457,514.79375 L 89.771862,514.79375 L 90.307831,551.9553 L 109.58308,514.79375 L 123.61302,514.79375 z M 65.999713,568.01801 L 54.11037,568.01801 L 54.00579,555.48811 L 40.724237,555.48811 L 34.407003,568.01801 L 20.377055,568.01801 L 48.008829,514.79375 L 65.463744,514.79375 L 65.999713,568.01801 z M 183.90291,518.65011 L 179.94197,530.42833 C 177.72822,529.28672 175.74667,528.44845 173.9973,527.91353 C 172.24763,527.37869 170.76609,527.11125 169.55269,527.11121 C 168.19737,527.11125 167.16247,527.32532 166.44799,527.7534 C 165.73322,528.18156 165.2332,528.71698 164.94794,529.35967 C 164.52076,530.00243 164.30724,530.82272 164.30739,531.82054 C 164.30724,532.5352 164.43198,533.1605 164.68159,533.69643 C 164.9309,534.23243 165.82309,535.19652 167.35816,536.5887 C 168.89293,537.98094 170.33851,539.31923 171.69493,540.60356 C 173.05103,541.88795 173.92579,542.85149 174.31921,543.49419 C 174.71231,544.13694 175.19436,545.20779 175.76534,546.70673 C 176.33601,548.20572 176.62143,549.88334 176.62159,551.73961 C 176.62143,554.02511 175.90735,556.64939 174.47935,559.61246 C 173.05103,562.57554 170.60595,565.03859 167.1441,567.00163 C 163.68195,568.96466 159.80925,569.94618 155.52601,569.94618 C 151.81331,569.94618 148.5109,569.37481 145.61877,568.23207 C 142.72638,567.08932 140.3521,565.66171 138.49595,563.94922 L 142.568,551.52718 C 144.92308,552.95426 147.24288,554.09646 149.52741,554.95378 C 151.81168,555.81112 154.23933,556.23979 156.81037,556.23978 C 158.2373,556.23979 159.43288,555.8291 160.39711,555.0077 C 161.36106,554.18634 161.8431,553.20482 161.84324,552.06315 C 161.8431,550.70581 161.05767,549.49117 159.48694,548.41922 C 156.9159,546.34944 154.88097,544.54709 153.38214,543.01215 C 151.88303,541.47726 150.88354,540.121 150.38365,538.94337 C 149.8835,537.76579 149.54417,536.64157 149.36564,535.57069 C 149.18686,534.49987 149.09753,533.50038 149.09766,532.57221 C 149.09753,529.85972 149.68687,527.20058 150.8657,524.59478 C 152.04426,521.98906 153.81175,519.81142 156.16819,518.06185 C 158.52435,516.31238 160.73739,515.13423 162.80733,514.5274 C 164.87698,513.92068 167.05462,513.61729 169.34026,513.61723 C 172.55156,513.61729 175.53152,514.13474 178.28015,515.16958 C 181.02845,516.20453 182.90271,517.36471 183.90291,518.65011 L 183.90291,518.65011 z M 187.86711,564.91331 C 187.86694,566.26848 187.40287,567.41014 186.4749,568.33828 C 185.5466,569.26642 184.3679,569.73049 182.93882,569.73049 C 181.6532,569.73049 180.51101,569.26642 179.51222,568.33828 C 178.51311,567.41014 178.01364,566.26848 178.0138,564.91331 C 178.01364,563.55597 178.49568,562.39525 179.45993,561.43115 C 180.42386,560.46707 181.58349,559.98503 182.93882,559.98502 C 184.3679,559.98503 185.5466,560.4491 186.4749,561.37723 C 187.40287,562.30537 187.86694,563.48407 187.86711,564.91331 L 187.86711,564.91331 z M 53.790096,543.92231 L 53.682249,530.42833 L 46.829046,543.92231 L 53.790096,543.92231 z M 187.2233,564.91331 C 187.22313,563.69976 186.83041,562.66432 186.04515,561.80698 C 185.25955,560.94966 184.22411,560.52099 182.93882,560.52099 C 181.797,560.52099 180.79751,560.94966 179.94034,561.80698 C 179.08285,562.66432 178.65418,563.69976 178.65434,564.91331 C 178.65418,566.12687 179.06487,567.14379 179.88642,567.96408 C 180.70764,568.78437 181.7251,569.19452 182.93882,569.19452 C 184.15221,569.19452 185.16968,568.78437 185.99122,567.96408 C 186.81244,567.14379 187.22313,566.12687 187.2233,564.91331 L 187.2233,564.91331 z M 185.51081,563.62895 C 185.51065,564.55491 184.90387,565.01789 183.69048,565.01789 L 185.40297,567.58988 L 184.6513,567.58988 L 183.04667,565.01789 L 181.7623,565.01789 L 181.7623,567.58988 L 181.11849,567.58988 L 181.11849,562.12889 L 183.47479,562.12889 C 184.11735,562.1289 184.61737,562.23566 184.97485,562.44917 C 185.33199,562.66269 185.51065,563.05595 185.51081,563.62895 L 185.51081,563.62895 z M 184.75915,563.62895 C 184.75898,562.98623 184.29491,562.66487 183.36694,562.66486 L 181.7623,562.66486 L 181.7623,564.58977 L 182.83097,564.58977 C 184.11626,564.58977 184.75898,564.2695 184.75915,563.62895 L 184.75915,563.62895 z"
       id="text5886" />
  </g>
</svg>
