<?xml version="1.0" encoding="utf-8"?>
<!-- Generator: Adobe Illustrator 18.0.0, SVG Export Plug-In . SVG Version: 6.00 Build 0)  -->
<!DOCTYPE svg PUBLIC "-//W3C//DTD SVG 1.1//EN" "http://www.w3.org/Graphics/SVG/1.1/DTD/svg11.dtd">
<svg version="1.1" id="Layer_1" xmlns="http://www.w3.org/2000/svg" xmlns:xlink="http://www.w3.org/1999/xlink" x="0px" y="0px"
	 viewBox="0 0 372.5 141.4" enable-background="new 0 0 372.5 141.4" xml:space="preserve">
<polygon fill-rule="evenodd" clip-rule="evenodd" fill="#FFF400" points="0,141.4 31,0 372.5,0 341.5,141.4 "/>
<path fill="#272425" d="M236.8,94.1c-2.4-2.6-1-7.7,0.3-13.6l4.2-19.8h17.2l3.1-14.7h-17.2l3.1-14.7h-16.3l-10.6,50.6
	c-1.6,7.6-2.2,13.5,1.1,19.9c3,5.9,13.4,11.6,26.5,8l2.9-13.7C242.1,97.2,238.6,96,236.8,94.1 M99.3,31.3l-7.8,36.5H63l7.7-36.5
	H54.4l-16.6,78.4h16.4l5.7-27.2h28.5l-5.8,27.2h16.2l16.6-78.4H99.3z M192.9,51.5c-5.7,4.8-8.9,11-11,20.9l-7.9,37.3h16.3l6.5-30.9
	c1.5-7.2,2.7-11.8,5.4-14.6c3.7-3.8,9.1-4,15.6-3.5l3.1-14.7C209.5,43.1,199.5,46,192.9,51.5 M319.7,46H269l-3.1,14.7h29.4
	l-36.8,34.8l-3,14.2h50.7l3.1-14.7h-29.6l37-35L319.7,46z M148.5,44.9c-5.5,0-13,1.7-20.3,7.5c-16.7,13.1-24.9,58.5,10.8,58.5
	c9.2,0,19.5-2.9,26.7-8.4l-6.4-11c-5.4,4.2-32.7,13.3-29.8-8.9H172c0,0,5.4-17.8-2.4-28.5C163,45,150.8,44.9,148.5,44.9 M159.1,69.2
	H133c0.9-3.5,6.5-12.2,16.7-11.3C160.8,58.9,159.1,69.2,159.1,69.2"/>
<path fill="#272425" d="M324,94L324,94c-4.8,0-9.3,3.8-10.3,8.5l-0.2,1.8h0.6l-0.6,0c0,3.8,2.7,6.6,6.8,6.6h0
	c4.7,0,9.2-3.9,10.2-8.5l0.2-1.7C330.8,96.9,328,94,324,94 M329.4,102.2c-0.8,4.1-5,7.6-9.1,7.6h0c-3.6,0-5.6-2.2-5.6-5.5l0.1-1.5
	c0.8-4,5-7.6,9-7.6c3.6,0.1,5.6,2.3,5.7,5.5L329.4,102.2 M323.3,98.4h-3.6l-1.7,8.1h1.8l0.5-2.6h1.4l1.2,2.6h2.1l-1.4-2.9
	c1.1-0.4,2-1.2,2.3-2.5C326.3,99.4,325.2,98.4,323.3,98.4 M324.1,101.2c-0.2,0.7-0.7,1.2-1.6,1.2h-1.8l0.5-2.4h1.8
	C323.8,100,324.2,100.4,324.1,101.2"/>
</svg>
