<?xml version="1.0" encoding="utf-8"?>
<!-- Generator: Adobe Illustrator 21.1.0, SVG Export Plug-In . SVG Version: 6.00 Build 0)  -->
<svg version="1.1"
	 id="svg2440" inkscape:output_extension="org.inkscape.output.svg.inkscape" inkscape:version="0.46" sodipodi:docname="Lpgotipo_de_Renfe_Operadora.svg" sodipodi:version="0.32" xmlns:cc="http://creativecommons.org/ns#" xmlns:dc="http://purl.org/dc/elements/1.1/" xmlns:inkscape="http://www.inkscape.org/namespaces/inkscape" xmlns:rdf="http://www.w3.org/1999/02/22-rdf-syntax-ns#" xmlns:sodipodi="http://sodipodi.sourceforge.net/DTD/sodipodi-0.dtd" xmlns:svg="http://www.w3.org/2000/svg"
	 xmlns="http://www.w3.org/2000/svg" xmlns:xlink="http://www.w3.org/1999/xlink" x="0px" y="0px" viewBox="0 0 2784 1168"
	 style="enable-background:new 0 0 2784 1168;" xml:space="preserve">
<style type="text/css">
	.st0{clip-path:url(#SVGID_2_);fill:#830065;}
</style>
<title>Renfe</title>
<defs>
	
	
		<inkscape:perspective  id="perspective2447" inkscape:persp3d-origin="372.04724 : 350.78739 : 1" inkscape:vp_x="0 : 526.18109 : 1" inkscape:vp_y="0 : 1000 : 0" inkscape:vp_z="744.09448 : 526.18109 : 1" sodipodi:type="inkscape:persp3d">
		</inkscape:perspective>
</defs>
<g>
	<g>
		<defs>
			<rect id="SVGID_1_" x="58.5" y="46.7" width="2689.1" height="1028"/>
		</defs>
		<clipPath id="SVGID_2_">
			<use xlink:href="#SVGID_1_"  style="overflow:visible;"/>
		</clipPath>
		<path class="st0" d="M1622.4,355.2h-391c-20.6,115.9-54.7,314.2-71.6,411.1h166.1c12.7-72.9,47.5-272.8,62.9-360.3h124.6
			c52.3,0,89.9,35.3,81.2,95.8c-8.3,47.9-28.4,163.3-46.1,264.5h166.1c11.8-68,34.8-199.8,45.6-261.9
			C1775,420.2,1730.5,355.2,1622.4,355.2"/>
		<path class="st0" d="M773.5,717.3c-77.2-12.7-62.8-105-62.8-105c68.5,8.2,154.9,6.3,213.9,0.4c51.1-5,151.9-17.7,180.7-96.3
			c28.5-77.9,6.8-140.9-87.2-158.5c-69.2-12.8-133.5-13.5-217.5-2.2c-119.9,16.1-185.9,56.7-215.2,128
			c-16.1,39.3-25.8,86-30.1,128.4c-7.6,77.1,6.9,147.8,103.4,155.5c129.4,10.4,231.2,8.1,339-8.8l33.6-47.9
			C929,727.9,812.4,723.8,773.5,717.3 M741,488.3c20.6-49,50.9-79.8,107.6-92.8c25.1-5.8,46.5-5.7,76.5,0.8
			c44.5,9.5,58.2,61.4,38.6,101.9c-21.8,45.2-51,55.3-89.2,63.1c-41.4,8.6-95.9,9.8-155.9,5.7C722.8,541.9,733.3,506.6,741,488.3"/>
		<path class="st0" d="M2404.2,717.3c-77.2-12.7-62.8-105-62.8-105c68.6,8.2,154.9,6.3,213.9,0.4c51.1-5,151.9-17.7,180.6-96.3
			c28.5-77.9,6.9-140.9-87.1-158.5c-69.3-12.8-133.6-13.5-217.6-2.2c-119.9,16.1-185.7,56.7-215.1,128
			c-16.2,39.3-25.9,86-30.1,128.4c-7.6,77.1,6.9,147.8,103.4,155.5c129.3,10.4,231.1,8.1,339.1-8.8l33.5-47.9
			C2559.7,727.9,2443.2,723.8,2404.2,717.3 M2371.8,488.3c20.5-49,50.8-79.8,107.4-92.8c25.1-5.8,46.6-5.7,76.6,0.8
			c44.5,9.5,58.1,61.4,38.7,101.9c-21.9,45.2-51,55.3-89.2,63.1c-41.4,8.6-95.9,9.8-155.9,5.7C2353.5,541.9,2364,506.6,2371.8,488.3
			"/>
		<path class="st0" d="M272.3,492.2c8.8-50.2,26.6-79.2,81.1-89.1c48.8-8.9,139.1-3,192.1,2.9l35.6-50.9
			c-80.3-5.8-215.9-12.4-296.3-0.7c-114.6,16.6-161.3,40-174.3,113.3c-7.7,43.9-42.3,242.3-52.1,298.6h166.1
			C235.9,700.9,264.2,538.6,272.3,492.2"/>
		<path class="st0" d="M2065.2,103.3c-94.4,66.2-126.4,147.4-143.8,247.2L1851,753.2c-15.8,91.6-22.8,139.4-38.4,184.4
			c-12.5,37.7-53.6,93.1-122,94l-29.9,42.6c88.3,4.3,158.9-21.2,208.8-56.1c94.4-66.1,129.2-160.7,146.7-260.3
			c1.2-6.8,31.9-183.1,46.6-266.6c10.7-59.3,41.8-91.8,107.3-92.7l30.4-43.3h-114c16.2-92.4,22-132.3,35.3-170.7
			c13-37.7,53.7-93.1,121.9-93.9l30.4-43.3C2185.6,42.9,2115.1,68.4,2065.2,103.3"/>
	</g>
	
		<sodipodi:namedview  bordercolor="#666666" borderopacity="1.0" gridtolerance="10.0" guidetolerance="10.0" id="base" inkscape:current-layer="svg2440" inkscape:cx="1388.2922" inkscape:cy="860.39668" inkscape:pageopacity="0.0" inkscape:pageshadow="2" inkscape:window-height="750" inkscape:window-width="1280" inkscape:window-x="-8" inkscape:window-y="-8" inkscape:zoom="0.3908046" objecttolerance="10.0" pagecolor="#ffffff" showgrid="false">
		</sodipodi:namedview>
</g>
</svg>
