<svg xmlns="http://www.w3.org/2000/svg" width="133" height="64" viewBox="0 0 133 64">
  <g fill="none">
    <path fill="#191919" d="M91.4 9.3l-7.3 11H84c-.6-.7-3.8-4.8-3.8-4.8-4 3.1-8.5 5.2-13.4 6.6l5.9 7.7v.1c-.9 1.3-12.8 18.9-12.8 18.9h-.1V23.5c-4.1.6-8 .8-11.8.8h-3.8v10.1s-.1.1-.1 0c-.6-1.4-1.4-2.6-2.1-3.4-5-5.3-22.2-7.2-24.7-10-.5-.5-.7-1.4-.7-2 0-2.3 1.4-3.7 5.2-3.8 2.8-.1 5 1.2 5.6 6.5h15.3c0-.6-.1-1.5-.2-2-.8-7.8-4.8-12.5-19.7-12.5-9.2 0-15.4 1.6-18.9 5.1C1.7 14.5.6 17.4.6 21.1c0 2.5.6 5.6 2.6 7.7 2.2 2.3 7 4 11.8 5.4 6 1.8 12 3.1 13.1 4.7.4.6.7 1.3.7 2.1 0 3.5-3.5 4.5-6.8 4.5-2.1 0-3.5-.6-4.6-1.7-1-1.2-1.5-3-1.6-5.4L0 38.3c.2 4.8.7 8.4 3.7 11 3 2.6 8.4 4.2 17.8 4.2 13.5 0 20.3-3.7 22.6-9.6 0 0 .1 0 .1.1v8.3h30.2L83 40h.1c.7 1 8.2 12.3 8.2 12.3h32.2V21.7s0-.1.1-.1h9.3V9.3H91.4zM108 49c-.1 0-13.6-18.7-13.6-18.7v-.1c.5-.7 5.9-8.2 5.9-8.3l.1-.1h7.6V49z"/>
    <path fill="#F47C22" d="M77.3 14.3c-7.1 4.8-17.1 7.6-29.7 7.5-1.1 0-2.2 0-3.4-.1V9.3c11.5.8 19.3-1.2 24-4.7C70 3.2 71.3 1.7 72.3 0h16.2c-2.2 5.8-5.9 10.7-11.2 14.3z"/>
    <path fill="#191919" d="M57.3658385 59.83157895c-1.2347826 0-2.02857142.6736842-2.02857142 1.8105263v2.14736843h-2.24906832v-4.54736842c0-.37894737 0-.75789473-.04409938-1.17894737h2.20496894c.04409938.4210526.04409938.8.04409938 1.2210526h.04409938c.57329193-1.0947369 1.19068323-1.3052632 2.64596273-1.3052632v1.8526316h-.6173913zm5.29192548 2.94736842c-.97018634 0-1.4993789-.4631579-1.54347827-1.34736842h5.3801242c0-2.1894737-1.0142857-3.57894737-3.8807453-3.57894737-2.0285714 0-3.7925466.9263158-3.7925466 3.11578947 0 2.23157895 1.8080746 2.94736842 3.836646 2.94736842 1.631677 0 3.263354-.1263158 3.7484472-1.9368421h-2.4254659c-.1322981.42105263-.3086956.8-1.3229813.8zm-.04409938-3.74736842c.7937888 0 1.4552795.29473684 1.4552795 1.22105263h-2.910559c.08819875-.54736842.3968944-1.22105263 1.4552795-1.22105263zm10.8043478 4.71578947v-2.90526316c0-.88421052-.3968944-1.51578947-1.4552795-1.51578947-.9260869 0-1.7198758.6736842-1.7198758 1.9368421v2.4842105h-2.2490683v-4.5052632c0-.3789474 0-.7578948-.0440994-1.1789474h2.204969c.0440994.3368421.0440994.6736842.0440994 1.0105263h.0440993c.573292-.7578948 1.4552795-1.2210526 2.5136646-1.2210526 2.1608696 0 2.9546584 1.1789473 2.9546584 2.6526316v3.2421052h-2.2931677zm8.1583851-1.30526316c.2204969 0 .5291926-.04210526.8819876-.08421052v1.38947368c-.2204969.04210526-.7937888.1263158-1.5434783.1263158-1.7198757 0-2.6459627-.63157896-2.6459627-2.02105264v-2.4h-1.4552795v-1.34736842h1.4552795v-1.1368421l2.2490683-.8v1.9368421h1.8962733v1.38947368h-1.8962733v1.76842105c.0440994.7578947.1322982 1.1789473 1.0583851 1.1789473zm13.4062112.04210527V60.3368421c0-1.9368421-1.3229814-2.44210526-3.6161491-2.44210526-1.5434782 0-3.3074534.42105263-3.3956521 1.89473684h2.337267c0-.37894736.2645963-.71578947 1.1024845-.71578947.8819876 0 1.3229814.2105264 1.3229814 1.1368422h-1.631677c-2.204969 0-3.5279504.5894737-3.5279504 1.9368421C87.573913 63.3263158 88.5440994 64 90.2639752 64c1.0142857 0 2.0285714-.25263158 2.5577639-1.1368421h.0440994c0 .29473684.0440994.71578947.0440994.92631578h2.2049689c-.1322981-.4631579-.1322981-.88421052-.1322981-1.30526315zm-4.1012422.25263158c-.6173913 0-.9701864-.2526315-.9701864-.5894736 0-.4631579.3086957-.8421052 1.8521739-.8421052h.926087c0 .5473684-.3086957 1.43157898-1.8080745 1.43157898zm13.8913043-3.6210526c-1.0142857 0-1.5875776.7578948-1.5875776 1.8105263 0 1.0105263.4850931 1.8105263 1.5875776 1.8105263.7496894 0 1.278882-.3789473 1.3229814-1.0947368h2.4254658c-.2204969 1.8526316-2.1167702 2.3157895-3.8807453 2.3157895-1.7639752 0-3.836646-.7578947-3.836646-3.0315789s1.9403727-3.0736842 4.0130435-3.0736842c1.631677 0 3.4397515.4631579 3.6602484 2.23157897h-2.337267c-.1763976-.6736842-.6614907-.96842104-1.3670808-.96842104zm12.0832298 3.3684211v-2.1473685c0-1.9368421-1.3229813-2.4421052-3.616149-2.4421052-1.5434783 0-3.3074535.42105267-3.3956522 1.89473688h2.3372671c0-.37894736.2645962-.71578947 1.1024844-.71578947.8819876 0 1.3229814.2105264 1.3229814 1.1368422h-1.631677c-2.204969 0-3.5279503.58947367-3.5279503 1.9368421 0 1.1789473.9701863 1.8526315 2.6900621 1.8526315 1.0142857 0 2.0285714-.2526316 2.557764-1.1368421h.0440993c0 .29473684.0440994.71578947.0440994.92631578h2.204969c-.1322982-.4631579-.1322982-.8842105-.1322982-1.30526314zm-4.1012422.2526316c-.6173913 0-.9701864-.2526315-.9701864-.5894736 0-.4631579.3086957-.84210526 1.852174-.84210526h.9260869c0 .5473684-.3086956 1.43157895-1.8080745 1.43157895zm10.2310559-2.9052631c-1.2347826 0-2.0285714.6736842-2.0285714 1.8105263v2.14736845h-2.2490684v-4.5473684c0-.3789474 0-.75789474-.0440993-1.1789474h2.2049689c.0440994.42105264.0440994.8.0440994 1.22105264h.0440994c.5732919-1.09473685 1.1906832-1.30526316 2.6459627-1.30526316v1.8526316h-.6173913z"/>
  </g>
</svg>
